# xmcd
#
# Track frame offsets:
#	150
#	12737
#	28829
#	43570
#	57558
#	71899
#	86243
#	106079
#	130188
#	138270
#	147029
#	166949
#	184998
#	194834
#	216279
#	252281
#
# Disc length: 3489 seconds
#
# Revision: 0
# Processed by: cddbd v1.5.2PL0 Copyright (c) Steve Scherf et al.
# Submitted via: audiograbber 1.83.01
#
DISCID=f90d9f10
DTITLE=Dritte Wahl - Gib Acht!
DYEAR=2010
DGENRE=Punk
TTITLE0=Gib Acht!
TTITLE1=Das sieht gut aus
TTITLE2=Wo ist mein Preis?
TTITLE3=Ich bin dafür
TTITLE4=Alles wird gut
TTITLE5=Keine Angst
TTITLE6=Alles für den Wind
TTITLE7=Fliegen
TTITLE8=Mama, hol' den Hammer
TTITLE9=Aufhör'n kann ich gut
TTITLE10=Ich bin's
TTITLE11=Morgen schon weg
TTITLE12=Singles (Junge Frau zum Mitreisen gesucht)
TTITLE13=Danke
TTITLE14=Obacht!
TTITLE15=Pro Rapid
EXTD=
EXTT0=
EXTT1=
EXTT2=
EXTT3=
EXTT4=
EXTT5=
EXTT6=
EXTT7=
EXTT8=
EXTT9=
EXTT10=
EXTT11=
EXTT12=
EXTT13=
EXTT14=
EXTT15=
PLAYORDER=
